<mxfile host="app.diagrams.net" modified="2022-12-05T03:53:14.891Z" agent="5.0 (Windows NT 10.0; Win64; x64) AppleWebKit/537.36 (KHTML, like Gecko) Chrome/107.0.0.0 Safari/537.36" etag="xbfIb_JIaAfIpxRuRtFG" version="20.3.7" type="github" pages="2">
  <diagram name="Page-1" id="74e2e168-ea6b-b213-b513-2b3c1d86103e">
    <mxGraphModel dx="1422" dy="762" grid="1" gridSize="10" guides="1" tooltips="1" connect="1" arrows="1" fold="1" page="1" pageScale="1" pageWidth="1100" pageHeight="850" background="none" math="0" shadow="0">
      <root>
        <mxCell id="0" />
        <mxCell id="1" parent="0" />
        <mxCell id="77e6c97f196da883-1" value="Pool" style="swimlane;html=1;childLayout=stackLayout;startSize=20;rounded=0;shadow=0;labelBackgroundColor=none;strokeWidth=1;fontFamily=Verdana;fontSize=8;align=center;" parent="1" vertex="1">
          <mxGeometry x="70" y="40" width="960" height="750" as="geometry" />
        </mxCell>
        <mxCell id="77e6c97f196da883-2" value="Lane 1" style="swimlane;html=1;startSize=20;" parent="77e6c97f196da883-1" vertex="1">
          <mxGeometry y="20" width="160" height="730" as="geometry" />
        </mxCell>
        <mxCell id="77e6c97f196da883-8" value="" style="rounded=1;whiteSpace=wrap;html=1;shadow=0;labelBackgroundColor=none;strokeWidth=1;fontFamily=Verdana;fontSize=8;align=center;" parent="77e6c97f196da883-2" vertex="1">
          <mxGeometry x="20" y="65" width="100" height="60" as="geometry" />
        </mxCell>
        <mxCell id="77e6c97f196da883-9" value="" style="rounded=1;whiteSpace=wrap;html=1;shadow=0;labelBackgroundColor=none;strokeWidth=1;fontFamily=Verdana;fontSize=8;align=center;" parent="77e6c97f196da883-2" vertex="1">
          <mxGeometry x="20" y="155" width="100" height="60" as="geometry" />
        </mxCell>
        <mxCell id="77e6c97f196da883-10" value="" style="rounded=1;whiteSpace=wrap;html=1;shadow=0;labelBackgroundColor=none;strokeWidth=1;fontFamily=Verdana;fontSize=8;align=center;" parent="77e6c97f196da883-2" vertex="1">
          <mxGeometry x="30" y="560" width="100" height="60" as="geometry" />
        </mxCell>
        <mxCell id="77e6c97f196da883-26" style="edgeStyle=orthogonalEdgeStyle;rounded=1;html=1;labelBackgroundColor=none;startArrow=none;startFill=0;startSize=5;endArrow=classicThin;endFill=1;endSize=5;jettySize=auto;orthogonalLoop=1;strokeWidth=1;fontFamily=Verdana;fontSize=8" parent="77e6c97f196da883-1" source="77e6c97f196da883-8" target="77e6c97f196da883-11" edge="1">
          <mxGeometry relative="1" as="geometry" />
        </mxCell>
        <mxCell id="77e6c97f196da883-27" style="edgeStyle=orthogonalEdgeStyle;rounded=1;html=1;labelBackgroundColor=none;startArrow=none;startFill=0;startSize=5;endArrow=classicThin;endFill=1;endSize=5;jettySize=auto;orthogonalLoop=1;strokeWidth=1;fontFamily=Verdana;fontSize=8" parent="77e6c97f196da883-1" source="77e6c97f196da883-11" target="77e6c97f196da883-9" edge="1">
          <mxGeometry relative="1" as="geometry">
            <Array as="points">
              <mxPoint x="240" y="155" />
              <mxPoint x="70" y="155" />
            </Array>
          </mxGeometry>
        </mxCell>
        <mxCell id="77e6c97f196da883-28" style="edgeStyle=orthogonalEdgeStyle;rounded=1;html=1;labelBackgroundColor=none;startArrow=none;startFill=0;startSize=5;endArrow=classicThin;endFill=1;endSize=5;jettySize=auto;orthogonalLoop=1;strokeWidth=1;fontFamily=Verdana;fontSize=8" parent="77e6c97f196da883-1" source="77e6c97f196da883-9" target="77e6c97f196da883-12" edge="1">
          <mxGeometry relative="1" as="geometry" />
        </mxCell>
        <mxCell id="77e6c97f196da883-30" style="edgeStyle=orthogonalEdgeStyle;rounded=1;html=1;labelBackgroundColor=none;startArrow=none;startFill=0;startSize=5;endArrow=classicThin;endFill=1;endSize=5;jettySize=auto;orthogonalLoop=1;strokeWidth=1;fontFamily=Verdana;fontSize=8" parent="77e6c97f196da883-1" source="77e6c97f196da883-13" target="77e6c97f196da883-9" edge="1">
          <mxGeometry relative="1" as="geometry" />
        </mxCell>
        <mxCell id="77e6c97f196da883-31" style="edgeStyle=orthogonalEdgeStyle;rounded=1;html=1;labelBackgroundColor=none;startArrow=none;startFill=0;startSize=5;endArrow=classicThin;endFill=1;endSize=5;jettySize=auto;orthogonalLoop=1;strokeWidth=1;fontFamily=Verdana;fontSize=8" parent="77e6c97f196da883-1" source="77e6c97f196da883-16" target="77e6c97f196da883-9" edge="1">
          <mxGeometry relative="1" as="geometry" />
        </mxCell>
        <mxCell id="77e6c97f196da883-32" style="edgeStyle=orthogonalEdgeStyle;rounded=1;html=1;labelBackgroundColor=none;startArrow=none;startFill=0;startSize=5;endArrow=classicThin;endFill=1;endSize=5;jettySize=auto;orthogonalLoop=1;strokeWidth=1;fontFamily=Verdana;fontSize=8" parent="77e6c97f196da883-1" source="77e6c97f196da883-20" target="77e6c97f196da883-9" edge="1">
          <mxGeometry relative="1" as="geometry">
            <Array as="points">
              <mxPoint x="20" y="690" />
              <mxPoint x="20" y="370" />
              <mxPoint x="70" y="370" />
            </Array>
          </mxGeometry>
        </mxCell>
        <mxCell id="77e6c97f196da883-33" style="edgeStyle=orthogonalEdgeStyle;rounded=1;html=1;labelBackgroundColor=none;startArrow=none;startFill=0;startSize=5;endArrow=classicThin;endFill=1;endSize=5;jettySize=auto;orthogonalLoop=1;strokeWidth=1;fontFamily=Verdana;fontSize=8" parent="77e6c97f196da883-1" source="77e6c97f196da883-13" target="77e6c97f196da883-15" edge="1">
          <mxGeometry relative="1" as="geometry" />
        </mxCell>
        <mxCell id="77e6c97f196da883-39" style="edgeStyle=orthogonalEdgeStyle;rounded=1;html=1;labelBackgroundColor=none;startArrow=none;startFill=0;startSize=5;endArrow=classicThin;endFill=1;endSize=5;jettySize=auto;orthogonalLoop=1;strokeWidth=1;fontFamily=Verdana;fontSize=8" parent="77e6c97f196da883-1" source="77e6c97f196da883-20" target="77e6c97f196da883-23" edge="1">
          <mxGeometry relative="1" as="geometry" />
        </mxCell>
        <mxCell id="77e6c97f196da883-40" style="edgeStyle=orthogonalEdgeStyle;rounded=1;html=1;labelBackgroundColor=none;startArrow=none;startFill=0;startSize=5;endArrow=classicThin;endFill=1;endSize=5;jettySize=auto;orthogonalLoop=1;strokeWidth=1;fontFamily=Verdana;fontSize=8" parent="77e6c97f196da883-1" source="77e6c97f196da883-23" target="77e6c97f196da883-24" edge="1">
          <mxGeometry relative="1" as="geometry" />
        </mxCell>
        <mxCell id="107ba76e4e335f99-1" style="edgeStyle=orthogonalEdgeStyle;rounded=1;html=1;labelBackgroundColor=none;startArrow=none;startFill=0;startSize=5;endArrow=classicThin;endFill=1;endSize=5;jettySize=auto;orthogonalLoop=1;strokeWidth=1;fontFamily=Verdana;fontSize=8" parent="77e6c97f196da883-1" source="77e6c97f196da883-17" target="77e6c97f196da883-18" edge="1">
          <mxGeometry relative="1" as="geometry" />
        </mxCell>
        <mxCell id="107ba76e4e335f99-2" style="edgeStyle=orthogonalEdgeStyle;rounded=1;html=1;labelBackgroundColor=none;startArrow=none;startFill=0;startSize=5;endArrow=classicThin;endFill=1;endSize=5;jettySize=auto;orthogonalLoop=1;strokeWidth=1;fontFamily=Verdana;fontSize=8" parent="77e6c97f196da883-1" source="77e6c97f196da883-22" target="77e6c97f196da883-14" edge="1">
          <mxGeometry relative="1" as="geometry">
            <Array as="points">
              <mxPoint x="660" y="610" />
              <mxPoint x="660" y="550" />
              <mxPoint x="400" y="550" />
            </Array>
          </mxGeometry>
        </mxCell>
        <mxCell id="107ba76e4e335f99-3" style="edgeStyle=orthogonalEdgeStyle;rounded=1;html=1;labelBackgroundColor=none;startArrow=none;startFill=0;startSize=5;endArrow=classicThin;endFill=1;endSize=5;jettySize=auto;orthogonalLoop=1;strokeColor=#000000;strokeWidth=1;fontFamily=Verdana;fontSize=8;fontColor=#000000;" parent="77e6c97f196da883-1" source="77e6c97f196da883-22" target="77e6c97f196da883-19" edge="1">
          <mxGeometry relative="1" as="geometry" />
        </mxCell>
        <mxCell id="107ba76e4e335f99-4" style="edgeStyle=orthogonalEdgeStyle;rounded=1;html=1;labelBackgroundColor=none;startArrow=none;startFill=0;startSize=5;endArrow=classicThin;endFill=1;endSize=5;jettySize=auto;orthogonalLoop=1;strokeWidth=1;fontFamily=Verdana;fontSize=8" parent="77e6c97f196da883-1" source="77e6c97f196da883-22" target="77e6c97f196da883-10" edge="1">
          <mxGeometry relative="1" as="geometry">
            <Array as="points">
              <mxPoint x="660" y="610" />
              <mxPoint x="660" y="550" />
              <mxPoint x="80" y="550" />
            </Array>
          </mxGeometry>
        </mxCell>
        <mxCell id="107ba76e4e335f99-5" style="edgeStyle=orthogonalEdgeStyle;rounded=1;html=1;labelBackgroundColor=none;startArrow=none;startFill=0;startSize=5;endArrow=classicThin;endFill=1;endSize=5;jettySize=auto;orthogonalLoop=1;strokeWidth=1;fontFamily=Verdana;fontSize=8" parent="77e6c97f196da883-1" source="77e6c97f196da883-10" target="77e6c97f196da883-19" edge="1">
          <mxGeometry relative="1" as="geometry">
            <Array as="points">
              <mxPoint x="80" y="650" />
              <mxPoint x="490" y="650" />
              <mxPoint x="490" y="610" />
            </Array>
          </mxGeometry>
        </mxCell>
        <mxCell id="107ba76e4e335f99-6" style="edgeStyle=orthogonalEdgeStyle;rounded=1;html=1;labelBackgroundColor=none;startArrow=none;startFill=0;startSize=5;endArrow=classicThin;endFill=1;endSize=5;jettySize=auto;orthogonalLoop=1;strokeWidth=1;fontFamily=Verdana;fontSize=8" parent="77e6c97f196da883-1" source="77e6c97f196da883-14" target="77e6c97f196da883-19" edge="1">
          <mxGeometry relative="1" as="geometry" />
        </mxCell>
        <mxCell id="77e6c97f196da883-3" value="Lane 2" style="swimlane;html=1;startSize=20;" parent="77e6c97f196da883-1" vertex="1">
          <mxGeometry x="160" y="20" width="160" height="730" as="geometry" />
        </mxCell>
        <mxCell id="77e6c97f196da883-11" value="" style="rounded=1;whiteSpace=wrap;html=1;shadow=0;labelBackgroundColor=none;strokeWidth=1;fontFamily=Verdana;fontSize=8;align=center;" parent="77e6c97f196da883-3" vertex="1">
          <mxGeometry x="30" y="65" width="100" height="60" as="geometry" />
        </mxCell>
        <mxCell id="77e6c97f196da883-4" value="Lane 3" style="swimlane;html=1;startSize=20;" parent="77e6c97f196da883-1" vertex="1">
          <mxGeometry x="320" y="20" width="160" height="730" as="geometry" />
        </mxCell>
        <mxCell id="77e6c97f196da883-12" value="" style="rounded=1;whiteSpace=wrap;html=1;shadow=0;labelBackgroundColor=none;strokeWidth=1;fontFamily=Verdana;fontSize=8;align=center;" parent="77e6c97f196da883-4" vertex="1">
          <mxGeometry x="30" y="155" width="100" height="60" as="geometry" />
        </mxCell>
        <mxCell id="77e6c97f196da883-13" value="" style="rhombus;whiteSpace=wrap;html=1;rounded=0;shadow=0;labelBackgroundColor=none;strokeWidth=1;fontFamily=Verdana;fontSize=8;align=center;" parent="77e6c97f196da883-4" vertex="1">
          <mxGeometry x="40" y="240" width="80" height="60" as="geometry" />
        </mxCell>
        <mxCell id="77e6c97f196da883-14" value="" style="rounded=1;whiteSpace=wrap;html=1;shadow=0;labelBackgroundColor=none;strokeWidth=1;fontFamily=Verdana;fontSize=8;align=center;" parent="77e6c97f196da883-4" vertex="1">
          <mxGeometry x="30" y="560" width="100" height="60" as="geometry" />
        </mxCell>
        <mxCell id="77e6c97f196da883-29" style="edgeStyle=orthogonalEdgeStyle;rounded=1;html=1;labelBackgroundColor=none;startArrow=none;startFill=0;startSize=5;endArrow=classicThin;endFill=1;endSize=5;jettySize=auto;orthogonalLoop=1;strokeWidth=1;fontFamily=Verdana;fontSize=8" parent="77e6c97f196da883-4" source="77e6c97f196da883-12" target="77e6c97f196da883-13" edge="1">
          <mxGeometry relative="1" as="geometry" />
        </mxCell>
        <mxCell id="77e6c97f196da883-5" value="Lane 4" style="swimlane;html=1;startSize=20;" parent="77e6c97f196da883-1" vertex="1">
          <mxGeometry x="480" y="20" width="160" height="730" as="geometry" />
        </mxCell>
        <mxCell id="77e6c97f196da883-15" value="" style="rounded=1;whiteSpace=wrap;html=1;shadow=0;labelBackgroundColor=none;strokeWidth=1;fontFamily=Verdana;fontSize=8;align=center;" parent="77e6c97f196da883-5" vertex="1">
          <mxGeometry x="30" y="240" width="100" height="60" as="geometry" />
        </mxCell>
        <mxCell id="77e6c97f196da883-16" value="" style="rhombus;whiteSpace=wrap;html=1;rounded=0;shadow=0;labelBackgroundColor=none;strokeWidth=1;fontFamily=Verdana;fontSize=8;align=center;" parent="77e6c97f196da883-5" vertex="1">
          <mxGeometry x="40" y="320" width="80" height="60" as="geometry" />
        </mxCell>
        <mxCell id="77e6c97f196da883-17" value="" style="rounded=1;whiteSpace=wrap;html=1;shadow=0;labelBackgroundColor=none;strokeWidth=1;fontFamily=Verdana;fontSize=8;align=center;" parent="77e6c97f196da883-5" vertex="1">
          <mxGeometry x="30" y="400" width="100" height="60" as="geometry" />
        </mxCell>
        <mxCell id="77e6c97f196da883-19" value="" style="rounded=1;whiteSpace=wrap;html=1;shadow=0;labelBackgroundColor=none;strokeWidth=1;fontFamily=Verdana;fontSize=8;align=center;" parent="77e6c97f196da883-5" vertex="1">
          <mxGeometry x="30" y="560" width="100" height="60" as="geometry" />
        </mxCell>
        <mxCell id="77e6c97f196da883-20" value="" style="rhombus;whiteSpace=wrap;html=1;rounded=0;shadow=0;labelBackgroundColor=none;strokeWidth=1;fontFamily=Verdana;fontSize=8;align=center;" parent="77e6c97f196da883-5" vertex="1">
          <mxGeometry x="40" y="640" width="80" height="60" as="geometry" />
        </mxCell>
        <mxCell id="77e6c97f196da883-34" style="edgeStyle=orthogonalEdgeStyle;rounded=1;html=1;labelBackgroundColor=none;startArrow=none;startFill=0;startSize=5;endArrow=classicThin;endFill=1;endSize=5;jettySize=auto;orthogonalLoop=1;strokeColor=#000000;strokeWidth=1;fontFamily=Verdana;fontSize=8;fontColor=#000000;" parent="77e6c97f196da883-5" source="77e6c97f196da883-15" target="77e6c97f196da883-16" edge="1">
          <mxGeometry relative="1" as="geometry" />
        </mxCell>
        <mxCell id="77e6c97f196da883-35" style="edgeStyle=orthogonalEdgeStyle;rounded=1;html=1;labelBackgroundColor=none;startArrow=none;startFill=0;startSize=5;endArrow=classicThin;endFill=1;endSize=5;jettySize=auto;orthogonalLoop=1;strokeWidth=1;fontFamily=Verdana;fontSize=8" parent="77e6c97f196da883-5" source="77e6c97f196da883-16" target="77e6c97f196da883-17" edge="1">
          <mxGeometry relative="1" as="geometry" />
        </mxCell>
        <mxCell id="77e6c97f196da883-36" style="edgeStyle=orthogonalEdgeStyle;rounded=1;html=1;labelBackgroundColor=none;startArrow=none;startFill=0;startSize=5;endArrow=classicThin;endFill=1;endSize=5;jettySize=auto;orthogonalLoop=1;strokeWidth=1;fontFamily=Verdana;fontSize=8" parent="77e6c97f196da883-5" source="77e6c97f196da883-19" target="77e6c97f196da883-20" edge="1">
          <mxGeometry relative="1" as="geometry" />
        </mxCell>
        <mxCell id="77e6c97f196da883-6" value="Lane 5" style="swimlane;html=1;startSize=20;" parent="77e6c97f196da883-1" vertex="1">
          <mxGeometry x="640" y="20" width="160" height="730" as="geometry" />
        </mxCell>
        <mxCell id="77e6c97f196da883-18" value="" style="rounded=1;whiteSpace=wrap;html=1;shadow=0;labelBackgroundColor=none;strokeWidth=1;fontFamily=Verdana;fontSize=8;align=center;" parent="77e6c97f196da883-6" vertex="1">
          <mxGeometry x="30" y="400" width="100" height="60" as="geometry" />
        </mxCell>
        <mxCell id="77e6c97f196da883-21" value="" style="rounded=1;whiteSpace=wrap;html=1;shadow=0;labelBackgroundColor=none;strokeWidth=1;fontFamily=Verdana;fontSize=8;align=center;" parent="77e6c97f196da883-6" vertex="1">
          <mxGeometry x="30" y="480" width="100" height="60" as="geometry" />
        </mxCell>
        <mxCell id="77e6c97f196da883-22" value="" style="rounded=1;whiteSpace=wrap;html=1;shadow=0;labelBackgroundColor=none;strokeWidth=1;fontFamily=Verdana;fontSize=8;align=center;" parent="77e6c97f196da883-6" vertex="1">
          <mxGeometry x="30" y="560" width="100" height="60" as="geometry" />
        </mxCell>
        <mxCell id="77e6c97f196da883-23" value="" style="rounded=1;whiteSpace=wrap;html=1;shadow=0;labelBackgroundColor=none;strokeWidth=1;fontFamily=Verdana;fontSize=8;align=center;" parent="77e6c97f196da883-6" vertex="1">
          <mxGeometry x="30" y="640" width="100" height="60" as="geometry" />
        </mxCell>
        <mxCell id="77e6c97f196da883-37" style="edgeStyle=orthogonalEdgeStyle;rounded=1;html=1;labelBackgroundColor=none;startArrow=none;startFill=0;startSize=5;endArrow=classicThin;endFill=1;endSize=5;jettySize=auto;orthogonalLoop=1;strokeWidth=1;fontFamily=Verdana;fontSize=8" parent="77e6c97f196da883-6" source="77e6c97f196da883-18" target="77e6c97f196da883-21" edge="1">
          <mxGeometry relative="1" as="geometry" />
        </mxCell>
        <mxCell id="77e6c97f196da883-38" style="edgeStyle=orthogonalEdgeStyle;rounded=1;html=1;labelBackgroundColor=none;startArrow=none;startFill=0;startSize=5;endArrow=classicThin;endFill=1;endSize=5;jettySize=auto;orthogonalLoop=1;strokeWidth=1;fontFamily=Verdana;fontSize=8" parent="77e6c97f196da883-6" source="77e6c97f196da883-21" target="77e6c97f196da883-22" edge="1">
          <mxGeometry relative="1" as="geometry" />
        </mxCell>
        <mxCell id="77e6c97f196da883-7" value="Lane 6" style="swimlane;html=1;startSize=20;" parent="77e6c97f196da883-1" vertex="1">
          <mxGeometry x="800" y="20" width="160" height="730" as="geometry" />
        </mxCell>
        <mxCell id="77e6c97f196da883-24" value="" style="rounded=1;whiteSpace=wrap;html=1;shadow=0;labelBackgroundColor=none;strokeWidth=1;fontFamily=Verdana;fontSize=8;align=center;" parent="77e6c97f196da883-7" vertex="1">
          <mxGeometry x="30" y="640" width="100" height="60" as="geometry" />
        </mxCell>
      </root>
    </mxGraphModel>
  </diagram>
  <diagram id="m019YILI9ALsiFe_J_vD" name="第 2 页">
    <mxGraphModel dx="2844" dy="1524" grid="1" gridSize="10" guides="1" tooltips="1" connect="1" arrows="1" fold="1" page="1" pageScale="1" pageWidth="827" pageHeight="1169" math="0" shadow="0">
      <root>
        <mxCell id="0" />
        <mxCell id="1" parent="0" />
        <mxCell id="E7fV_PNSYA501RTFvuef-4" value="Project&#xa;" style="strokeColor=#BAC8D3;fillColor=#23445D;fontSize=24;strokeWidth=2;fontFamily=Helvetica;html=1;fontColor=#FFFFFF;fontStyle=0;spacingBottom=8;spacingRight=0;spacingLeft=83;" vertex="1" parent="1">
          <mxGeometry x="20" y="20" width="2030" height="80" as="geometry" />
        </mxCell>
        <mxCell id="E7fV_PNSYA501RTFvuef-5" value="Lane 1" style="strokeColor=#BAC8D3;fillColor=#23445D;fontSize=24;strokeWidth=2;horizontal=0;fontFamily=Helvetica;html=1;fontColor=#FFFFFF;fontStyle=0" vertex="1" parent="1">
          <mxGeometry x="20" y="100" width="50" height="300" as="geometry" />
        </mxCell>
        <mxCell id="E7fV_PNSYA501RTFvuef-6" value="Lane 1.1" style="strokeColor=#BAC8D3;fillColor=#5d7f99;fontSize=19;strokeWidth=2;horizontal=0;fontFamily=Helvetica;html=1;labelBackgroundColor=none;fontColor=#FFFFFF;" vertex="1" parent="1">
          <mxGeometry x="70" y="100" width="40" height="100" as="geometry" />
        </mxCell>
        <mxCell id="E7fV_PNSYA501RTFvuef-7" value="v 1.0" style="strokeColor=#BAC8D3;fillColor=#5d7f99;fontSize=19;strokeWidth=2;fontFamily=Helvetica;html=1;labelBackgroundColor=none;fontColor=#FFFFFF;" vertex="1" parent="1">
          <mxGeometry x="20" y="20" width="90" height="80" as="geometry" />
        </mxCell>
        <mxCell id="E7fV_PNSYA501RTFvuef-8" value="Lane 1.2" style="strokeColor=#BAC8D3;fillColor=#5d7f99;fontSize=19;strokeWidth=2;horizontal=0;fontFamily=Helvetica;html=1;labelBackgroundColor=none;fontColor=#FFFFFF;" vertex="1" parent="1">
          <mxGeometry x="70" y="200" width="40" height="100" as="geometry" />
        </mxCell>
        <mxCell id="E7fV_PNSYA501RTFvuef-9" value="Lane 1.3" style="strokeColor=#BAC8D3;fillColor=#5d7f99;fontSize=19;strokeWidth=2;horizontal=0;fontFamily=Helvetica;html=1;labelBackgroundColor=none;fontColor=#FFFFFF;" vertex="1" parent="1">
          <mxGeometry x="70" y="300" width="40" height="100" as="geometry" />
        </mxCell>
        <mxCell id="E7fV_PNSYA501RTFvuef-10" value="Lane 2.2" style="strokeColor=#BAC8D3;fillColor=#5d7f99;fontSize=19;strokeWidth=2;horizontal=0;fontFamily=Helvetica;html=1;labelBackgroundColor=none;fontColor=#FFFFFF;" vertex="1" parent="1">
          <mxGeometry x="70" y="500" width="40" height="100" as="geometry" />
        </mxCell>
        <mxCell id="E7fV_PNSYA501RTFvuef-11" value="Lane 2.1" style="strokeColor=#BAC8D3;fillColor=#5d7f99;fontSize=19;strokeWidth=2;horizontal=0;fontFamily=Helvetica;html=1;labelBackgroundColor=none;fontColor=#FFFFFF;" vertex="1" parent="1">
          <mxGeometry x="70" y="400" width="40" height="100" as="geometry" />
        </mxCell>
        <mxCell id="E7fV_PNSYA501RTFvuef-12" value="Lane 2" style="strokeColor=#BAC8D3;fillColor=#23445D;fontSize=24;strokeWidth=2;horizontal=0;fontFamily=Helvetica;html=1;fontColor=#FFFFFF;fontStyle=0" vertex="1" parent="1">
          <mxGeometry x="20" y="400" width="50" height="200" as="geometry" />
        </mxCell>
        <mxCell id="E7fV_PNSYA501RTFvuef-13" value="Lane 3.2" style="strokeColor=#BAC8D3;fillColor=#5d7f99;fontSize=19;strokeWidth=2;horizontal=0;fontFamily=Helvetica;html=1;labelBackgroundColor=none;fontColor=#FFFFFF;" vertex="1" parent="1">
          <mxGeometry x="70" y="700" width="40" height="100" as="geometry" />
        </mxCell>
        <mxCell id="E7fV_PNSYA501RTFvuef-14" value="Lane 3.1" style="strokeColor=#BAC8D3;fillColor=#5d7f99;fontSize=19;strokeWidth=2;horizontal=0;fontFamily=Helvetica;html=1;labelBackgroundColor=none;fontColor=#FFFFFF;" vertex="1" parent="1">
          <mxGeometry x="70" y="600" width="40" height="100" as="geometry" />
        </mxCell>
        <mxCell id="E7fV_PNSYA501RTFvuef-15" value="Lane 3" style="strokeColor=#BAC8D3;fillColor=#23445D;fontSize=24;strokeWidth=2;horizontal=0;fontFamily=Helvetica;html=1;fontColor=#FFFFFF;fontStyle=0" vertex="1" parent="1">
          <mxGeometry x="20" y="600" width="50" height="200" as="geometry" />
        </mxCell>
        <mxCell id="E7fV_PNSYA501RTFvuef-16" value="" style="strokeColor=#FFFFFF;fillColor=#BAC8D3;fontSize=18;strokeWidth=2;fontFamily=Helvetica;html=1;opacity=60;" vertex="1" parent="1">
          <mxGeometry x="110" y="100" width="646.6666666666666" height="100" as="geometry" />
        </mxCell>
        <mxCell id="E7fV_PNSYA501RTFvuef-17" value="" style="strokeColor=#FFFFFF;fillColor=#BAC8D3;fontSize=18;strokeWidth=2;fontFamily=Helvetica;html=1;opacity=90;" vertex="1" parent="1">
          <mxGeometry x="110" y="200" width="646.6666666666666" height="100" as="geometry" />
        </mxCell>
        <mxCell id="E7fV_PNSYA501RTFvuef-18" value="" style="strokeColor=#FFFFFF;fillColor=#BAC8D3;fontSize=18;strokeWidth=2;fontFamily=Helvetica;html=1;opacity=60;" vertex="1" parent="1">
          <mxGeometry x="110" y="300" width="646.6666666666666" height="100" as="geometry" />
        </mxCell>
        <mxCell id="E7fV_PNSYA501RTFvuef-19" value="" style="strokeColor=#FFFFFF;fillColor=#BAC8D3;fontSize=18;strokeWidth=2;fontFamily=Helvetica;html=1;opacity=90;" vertex="1" parent="1">
          <mxGeometry x="110" y="400" width="646.6666666666666" height="100" as="geometry" />
        </mxCell>
        <mxCell id="E7fV_PNSYA501RTFvuef-20" value="" style="strokeColor=#FFFFFF;fillColor=#BAC8D3;fontSize=18;strokeWidth=2;fontFamily=Helvetica;html=1;opacity=60;" vertex="1" parent="1">
          <mxGeometry x="110" y="500" width="646.6666666666666" height="100" as="geometry" />
        </mxCell>
        <mxCell id="E7fV_PNSYA501RTFvuef-21" value="" style="strokeColor=#FFFFFF;fillColor=#BAC8D3;fontSize=18;strokeWidth=2;fontFamily=Helvetica;html=1;opacity=90;" vertex="1" parent="1">
          <mxGeometry x="110" y="600" width="646.6666666666666" height="100" as="geometry" />
        </mxCell>
        <mxCell id="E7fV_PNSYA501RTFvuef-22" value="" style="strokeColor=#FFFFFF;fillColor=#BAC8D3;fontSize=18;strokeWidth=2;fontFamily=Helvetica;html=1;opacity=60;" vertex="1" parent="1">
          <mxGeometry x="110" y="700" width="646.6666666666666" height="100" as="geometry" />
        </mxCell>
        <mxCell id="E7fV_PNSYA501RTFvuef-23" value="" style="strokeColor=#FFFFFF;fillColor=#BAC8D3;fontSize=18;strokeWidth=2;fontFamily=Helvetica;html=1;opacity=60;" vertex="1" parent="1">
          <mxGeometry x="756.6666666666666" y="100" width="647" height="100" as="geometry" />
        </mxCell>
        <mxCell id="E7fV_PNSYA501RTFvuef-24" value="" style="strokeColor=#FFFFFF;fillColor=#BAC8D3;fontSize=18;strokeWidth=2;fontFamily=Helvetica;html=1;opacity=90;" vertex="1" parent="1">
          <mxGeometry x="756.6666666666666" y="200" width="646.6666666666666" height="100" as="geometry" />
        </mxCell>
        <mxCell id="E7fV_PNSYA501RTFvuef-25" value="" style="strokeColor=#FFFFFF;fillColor=#BAC8D3;fontSize=18;strokeWidth=2;fontFamily=Helvetica;html=1;opacity=60;" vertex="1" parent="1">
          <mxGeometry x="756.6666666666666" y="300" width="646.6666666666666" height="100" as="geometry" />
        </mxCell>
        <mxCell id="E7fV_PNSYA501RTFvuef-26" value="" style="strokeColor=#FFFFFF;fillColor=#BAC8D3;fontSize=18;strokeWidth=2;fontFamily=Helvetica;html=1;opacity=90;" vertex="1" parent="1">
          <mxGeometry x="756.6666666666666" y="400" width="646.6666666666666" height="100" as="geometry" />
        </mxCell>
        <mxCell id="E7fV_PNSYA501RTFvuef-27" value="" style="strokeColor=#FFFFFF;fillColor=#BAC8D3;fontSize=18;strokeWidth=2;fontFamily=Helvetica;html=1;opacity=60;" vertex="1" parent="1">
          <mxGeometry x="756.6666666666666" y="500" width="646.6666666666666" height="100" as="geometry" />
        </mxCell>
        <mxCell id="E7fV_PNSYA501RTFvuef-28" value="" style="strokeColor=#FFFFFF;fillColor=#BAC8D3;fontSize=18;strokeWidth=2;fontFamily=Helvetica;html=1;opacity=90;" vertex="1" parent="1">
          <mxGeometry x="756.6666666666666" y="600" width="646.6666666666666" height="100" as="geometry" />
        </mxCell>
        <mxCell id="E7fV_PNSYA501RTFvuef-29" value="" style="strokeColor=#FFFFFF;fillColor=#BAC8D3;fontSize=18;strokeWidth=2;fontFamily=Helvetica;html=1;opacity=60;fontStyle=4" vertex="1" parent="1">
          <mxGeometry x="756.6666666666666" y="700" width="646.6666666666666" height="100" as="geometry" />
        </mxCell>
        <mxCell id="E7fV_PNSYA501RTFvuef-30" value="" style="strokeColor=#FFFFFF;fillColor=#BAC8D3;fontSize=18;strokeWidth=2;fontFamily=Helvetica;html=1;opacity=60;" vertex="1" parent="1">
          <mxGeometry x="1403.3333333333333" y="100" width="647" height="100" as="geometry" />
        </mxCell>
        <mxCell id="E7fV_PNSYA501RTFvuef-31" value="" style="strokeColor=#FFFFFF;fillColor=#BAC8D3;fontSize=18;strokeWidth=2;fontFamily=Helvetica;html=1;opacity=90;" vertex="1" parent="1">
          <mxGeometry x="1403.3333333333333" y="200" width="646.6666666666666" height="100" as="geometry" />
        </mxCell>
        <mxCell id="E7fV_PNSYA501RTFvuef-32" value="" style="strokeColor=#FFFFFF;fillColor=#BAC8D3;fontSize=18;strokeWidth=2;fontFamily=Helvetica;html=1;opacity=60;" vertex="1" parent="1">
          <mxGeometry x="1403.3333333333333" y="300" width="646.6666666666666" height="100" as="geometry" />
        </mxCell>
        <mxCell id="E7fV_PNSYA501RTFvuef-33" value="" style="strokeColor=#FFFFFF;fillColor=#BAC8D3;fontSize=18;strokeWidth=2;fontFamily=Helvetica;html=1;opacity=90;" vertex="1" parent="1">
          <mxGeometry x="1403.3333333333333" y="400" width="646.6666666666666" height="100" as="geometry" />
        </mxCell>
        <mxCell id="E7fV_PNSYA501RTFvuef-34" value="" style="strokeColor=#FFFFFF;fillColor=#BAC8D3;fontSize=18;strokeWidth=2;fontFamily=Helvetica;html=1;opacity=60;" vertex="1" parent="1">
          <mxGeometry x="1403.3333333333333" y="500" width="646.6666666666666" height="100" as="geometry" />
        </mxCell>
        <mxCell id="E7fV_PNSYA501RTFvuef-35" value="" style="strokeColor=#FFFFFF;fillColor=#BAC8D3;fontSize=18;strokeWidth=2;fontFamily=Helvetica;html=1;opacity=90;" vertex="1" parent="1">
          <mxGeometry x="1403.3333333333333" y="600" width="646.6666666666666" height="100" as="geometry" />
        </mxCell>
        <mxCell id="E7fV_PNSYA501RTFvuef-36" value="" style="strokeColor=#FFFFFF;fillColor=#BAC8D3;fontSize=18;strokeWidth=2;fontFamily=Helvetica;html=1;opacity=60;fontStyle=4" vertex="1" parent="1">
          <mxGeometry x="1403.3333333333333" y="700" width="646.6666666666666" height="100" as="geometry" />
        </mxCell>
        <mxCell id="E7fV_PNSYA501RTFvuef-37" style="edgeStyle=orthogonalEdgeStyle;rounded=1;jumpStyle=none;html=1;exitX=1;exitY=0.5;entryX=0;entryY=0.5;labelBackgroundColor=#ffffff;startArrow=none;startFill=0;endArrow=classic;jettySize=auto;orthogonalLoop=1;strokeColor=#0C343D;strokeWidth=3;fontFamily=Helvetica;fontSize=11;fontColor=#000000;" edge="1" parent="1" source="E7fV_PNSYA501RTFvuef-38" target="E7fV_PNSYA501RTFvuef-40">
          <mxGeometry relative="1" as="geometry">
            <Array as="points">
              <mxPoint x="288" y="150" />
              <mxPoint x="288" y="350" />
            </Array>
          </mxGeometry>
        </mxCell>
        <mxCell id="E7fV_PNSYA501RTFvuef-38" value="" style="rounded=1;fillColor=#23445D;strokeColor=none;strokeWidth=2;fontFamily=Helvetica;html=1;gradientColor=none;" vertex="1" parent="1">
          <mxGeometry x="136.39455782312928" y="125" width="127" height="50" as="geometry" />
        </mxCell>
        <mxCell id="E7fV_PNSYA501RTFvuef-39" value="" style="rounded=1;fillColor=#23445D;strokeColor=none;strokeWidth=2;fontFamily=Helvetica;html=1;gradientColor=none;" vertex="1" parent="1">
          <mxGeometry x="581.9047619047619" y="125" width="127" height="50" as="geometry" />
        </mxCell>
        <mxCell id="E7fV_PNSYA501RTFvuef-40" value="" style="rounded=1;fillColor=#23445D;strokeColor=none;strokeWidth=2;fontFamily=Helvetica;html=1;gradientColor=none;" vertex="1" parent="1">
          <mxGeometry x="344.3537414965986" y="325" width="127" height="50" as="geometry" />
        </mxCell>
        <mxCell id="E7fV_PNSYA501RTFvuef-41" value="" style="rounded=1;fillColor=#23445D;strokeColor=none;strokeWidth=2;fontFamily=Helvetica;html=1;gradientColor=none;" vertex="1" parent="1">
          <mxGeometry x="581.9047619047619" y="425" width="127" height="50" as="geometry" />
        </mxCell>
        <mxCell id="E7fV_PNSYA501RTFvuef-42" value="" style="rounded=1;fillColor=#23445D;strokeColor=none;strokeWidth=2;fontFamily=Helvetica;html=1;gradientColor=none;" vertex="1" parent="1">
          <mxGeometry x="581.9047619047619" y="525" width="127" height="50" as="geometry" />
        </mxCell>
        <mxCell id="E7fV_PNSYA501RTFvuef-43" value="" style="rounded=1;fillColor=#23445D;strokeColor=none;strokeWidth=2;fontFamily=Helvetica;html=1;gradientColor=none;" vertex="1" parent="1">
          <mxGeometry x="344.3537414965986" y="625" width="127" height="50" as="geometry" />
        </mxCell>
        <mxCell id="E7fV_PNSYA501RTFvuef-44" value="" style="rounded=1;fillColor=#23445D;strokeColor=none;strokeWidth=2;fontFamily=Helvetica;html=1;gradientColor=none;" vertex="1" parent="1">
          <mxGeometry x="344.3537414965986" y="525" width="127" height="50" as="geometry" />
        </mxCell>
        <mxCell id="E7fV_PNSYA501RTFvuef-45" value="" style="rounded=1;fillColor=#23445D;strokeColor=none;strokeWidth=2;fontFamily=Helvetica;html=1;gradientColor=none;" vertex="1" parent="1">
          <mxGeometry x="1027.4149659863945" y="225" width="127" height="50" as="geometry" />
        </mxCell>
        <mxCell id="E7fV_PNSYA501RTFvuef-46" value="" style="rounded=1;fillColor=#23445D;strokeColor=none;strokeWidth=2;fontFamily=Helvetica;html=1;gradientColor=none;" vertex="1" parent="1">
          <mxGeometry x="1238.5714285714284" y="125" width="127" height="50" as="geometry" />
        </mxCell>
        <mxCell id="E7fV_PNSYA501RTFvuef-47" value="" style="rounded=1;fillColor=#23445D;strokeColor=none;strokeWidth=2;gradientColor=none;fontFamily=Helvetica;html=1;" vertex="1" parent="1">
          <mxGeometry x="1895.2380952380954" y="625" width="127" height="50" as="geometry" />
        </mxCell>
        <mxCell id="E7fV_PNSYA501RTFvuef-48" value="" style="rounded=1;fillColor=#23445D;strokeColor=none;strokeWidth=2;fontFamily=Helvetica;html=1;gradientColor=none;" vertex="1" parent="1">
          <mxGeometry x="1027.4149659863945" y="425" width="127" height="50" as="geometry" />
        </mxCell>
        <mxCell id="E7fV_PNSYA501RTFvuef-49" value="" style="rounded=1;fillColor=#23445D;strokeColor=none;strokeWidth=2;fontFamily=Helvetica;html=1;gradientColor=none;" vertex="1" parent="1">
          <mxGeometry x="1027.4149659863945" y="725" width="127" height="50" as="geometry" />
        </mxCell>
        <mxCell id="E7fV_PNSYA501RTFvuef-50" value="" style="rounded=1;fillColor=#23445D;strokeColor=none;strokeWidth=2;fontFamily=Helvetica;html=1;gradientColor=none;" vertex="1" parent="1">
          <mxGeometry x="806.2585034013605" y="625" width="127" height="50" as="geometry" />
        </mxCell>
        <mxCell id="E7fV_PNSYA501RTFvuef-51" value="" style="rounded=1;fillColor=#23445D;strokeColor=none;strokeWidth=2;fontFamily=Helvetica;html=1;gradientColor=none;" vertex="1" parent="1">
          <mxGeometry x="1027.4149659863945" y="625" width="127" height="50" as="geometry" />
        </mxCell>
        <mxCell id="E7fV_PNSYA501RTFvuef-52" value="" style="rounded=1;fillColor=#23445D;strokeColor=none;strokeWidth=2;fontFamily=Helvetica;html=1;gradientColor=none;" vertex="1" parent="1">
          <mxGeometry x="806.2585034013605" y="425" width="127" height="50" as="geometry" />
        </mxCell>
        <mxCell id="E7fV_PNSYA501RTFvuef-53" value="" style="rounded=1;fillColor=#23445D;strokeColor=none;strokeWidth=2;fontFamily=Helvetica;html=1;gradientColor=none;" vertex="1" parent="1">
          <mxGeometry x="1238.5714285714284" y="325" width="127" height="50" as="geometry" />
        </mxCell>
        <mxCell id="E7fV_PNSYA501RTFvuef-54" value="" style="rounded=1;fillColor=#23445D;strokeColor=none;strokeWidth=2;gradientColor=none;fontFamily=Helvetica;html=1;" vertex="1" parent="1">
          <mxGeometry x="1452.9251700680272" y="525" width="127" height="50" as="geometry" />
        </mxCell>
        <mxCell id="E7fV_PNSYA501RTFvuef-55" value="" style="rounded=1;fillColor=#23445D;strokeColor=none;strokeWidth=2;gradientColor=none;fontFamily=Helvetica;html=1;" vertex="1" parent="1">
          <mxGeometry x="1674.0816326530612" y="525" width="127" height="50" as="geometry" />
        </mxCell>
        <mxCell id="E7fV_PNSYA501RTFvuef-56" value="" style="rounded=1;fillColor=#23445D;strokeColor=none;strokeWidth=2;gradientColor=none;fontFamily=Helvetica;html=1;" vertex="1" parent="1">
          <mxGeometry x="1439.7278911564624" y="225" width="127" height="50" as="geometry" />
        </mxCell>
        <mxCell id="E7fV_PNSYA501RTFvuef-57" value="" style="rounded=1;fillColor=#23445D;strokeColor=none;strokeWidth=2;gradientColor=none;fontFamily=Helvetica;html=1;" vertex="1" parent="1">
          <mxGeometry x="1452.9251700680272" y="625" width="127" height="50" as="geometry" />
        </mxCell>
        <mxCell id="E7fV_PNSYA501RTFvuef-58" value="" style="rounded=1;fillColor=#23445D;strokeColor=none;strokeWidth=2;gradientColor=none;fontFamily=Helvetica;html=1;" vertex="1" parent="1">
          <mxGeometry x="1674.0816326530612" y="725" width="127" height="50" as="geometry" />
        </mxCell>
        <mxCell id="E7fV_PNSYA501RTFvuef-59" value="" style="rounded=1;fillColor=#23445D;strokeColor=none;strokeWidth=2;gradientColor=none;fontFamily=Helvetica;html=1;" vertex="1" parent="1">
          <mxGeometry x="1674.0816326530612" y="125" width="127" height="50" as="geometry" />
        </mxCell>
        <mxCell id="E7fV_PNSYA501RTFvuef-60" value="" style="edgeStyle=elbowEdgeStyle;elbow=horizontal;strokeWidth=3;strokeColor=#0C343D;fontFamily=Helvetica;html=1;rounded=0;" edge="1" parent="1" source="E7fV_PNSYA501RTFvuef-38" target="E7fV_PNSYA501RTFvuef-44">
          <mxGeometry x="-127.55102040816325" width="131.97278911564624" height="100" as="geometry">
            <mxPoint x="-127.55102040816325" y="100" as="sourcePoint" />
            <mxPoint x="4.421768707483011" as="targetPoint" />
            <Array as="points">
              <mxPoint x="288" y="363" />
            </Array>
          </mxGeometry>
        </mxCell>
        <mxCell id="E7fV_PNSYA501RTFvuef-61" value="" style="edgeStyle=elbowEdgeStyle;elbow=horizontal;strokeWidth=3;strokeColor=#0C343D;fontFamily=Helvetica;html=1;rounded=0;" edge="1" parent="1" source="E7fV_PNSYA501RTFvuef-38" target="E7fV_PNSYA501RTFvuef-43">
          <mxGeometry x="-127.55102040816325" width="131.97278911564624" height="100" as="geometry">
            <mxPoint x="-127.55102040816325" y="100" as="sourcePoint" />
            <mxPoint x="4.421768707483011" as="targetPoint" />
            <Array as="points">
              <mxPoint x="288" y="272" />
            </Array>
          </mxGeometry>
        </mxCell>
        <mxCell id="E7fV_PNSYA501RTFvuef-62" value="" style="edgeStyle=elbowEdgeStyle;elbow=horizontal;strokeWidth=3;strokeColor=#0C343D;fontFamily=Helvetica;html=1;rounded=0;" edge="1" parent="1" source="E7fV_PNSYA501RTFvuef-40" target="E7fV_PNSYA501RTFvuef-39">
          <mxGeometry x="-127.55102040816325" width="131.97278911564624" height="100" as="geometry">
            <mxPoint x="-127.55102040816325" y="100" as="sourcePoint" />
            <mxPoint x="4.421768707483011" as="targetPoint" />
          </mxGeometry>
        </mxCell>
        <mxCell id="E7fV_PNSYA501RTFvuef-63" value="" style="edgeStyle=elbowEdgeStyle;elbow=horizontal;strokeWidth=3;strokeColor=#0C343D;fontFamily=Helvetica;html=1;rounded=0;" edge="1" parent="1" source="E7fV_PNSYA501RTFvuef-40" target="E7fV_PNSYA501RTFvuef-41">
          <mxGeometry x="-127.55102040816325" width="131.97278911564624" height="100" as="geometry">
            <mxPoint x="-127.55102040816325" y="100" as="sourcePoint" />
            <mxPoint x="4.421768707483011" as="targetPoint" />
          </mxGeometry>
        </mxCell>
        <mxCell id="E7fV_PNSYA501RTFvuef-64" value="" style="edgeStyle=elbowEdgeStyle;elbow=horizontal;strokeWidth=3;strokeColor=#0C343D;fontFamily=Helvetica;html=1;rounded=0;" edge="1" parent="1" source="E7fV_PNSYA501RTFvuef-44" target="E7fV_PNSYA501RTFvuef-41">
          <mxGeometry x="-127.55102040816325" width="131.97278911564624" height="100" as="geometry">
            <mxPoint x="-127.55102040816325" y="100" as="sourcePoint" />
            <mxPoint x="4.421768707483011" as="targetPoint" />
          </mxGeometry>
        </mxCell>
        <mxCell id="E7fV_PNSYA501RTFvuef-65" value="" style="edgeStyle=elbowEdgeStyle;elbow=horizontal;strokeWidth=3;strokeColor=#0C343D;fontFamily=Helvetica;html=1;rounded=0;" edge="1" parent="1" source="E7fV_PNSYA501RTFvuef-44" target="E7fV_PNSYA501RTFvuef-42">
          <mxGeometry x="-127.55102040816325" width="131.97278911564624" height="100" as="geometry">
            <mxPoint x="-127.55102040816325" y="100" as="sourcePoint" />
            <mxPoint x="4.421768707483011" as="targetPoint" />
          </mxGeometry>
        </mxCell>
        <mxCell id="E7fV_PNSYA501RTFvuef-66" value="" style="edgeStyle=elbowEdgeStyle;elbow=horizontal;strokeWidth=3;strokeColor=#0C343D;fontFamily=Helvetica;html=1;rounded=0;" edge="1" parent="1" source="E7fV_PNSYA501RTFvuef-43" target="E7fV_PNSYA501RTFvuef-42">
          <mxGeometry x="-127.55102040816325" width="131.97278911564624" height="100" as="geometry">
            <mxPoint x="-127.55102040816325" y="100" as="sourcePoint" />
            <mxPoint x="4.421768707483011" as="targetPoint" />
            <Array as="points">
              <mxPoint x="534.952380952381" y="604" />
            </Array>
          </mxGeometry>
        </mxCell>
        <mxCell id="E7fV_PNSYA501RTFvuef-67" value="" style="edgeStyle=elbowEdgeStyle;elbow=horizontal;strokeWidth=3;strokeColor=#0C343D;fontFamily=Helvetica;html=1;rounded=0;" edge="1" parent="1" source="E7fV_PNSYA501RTFvuef-39" target="E7fV_PNSYA501RTFvuef-45">
          <mxGeometry x="-127.55102040816325" width="131.97278911564624" height="100" as="geometry">
            <mxPoint x="-127.55102040816325" y="100" as="sourcePoint" />
            <mxPoint x="4.421768707483011" as="targetPoint" />
          </mxGeometry>
        </mxCell>
        <mxCell id="E7fV_PNSYA501RTFvuef-68" value="" style="edgeStyle=elbowEdgeStyle;elbow=horizontal;strokeWidth=3;strokeColor=#0C343D;fontFamily=Helvetica;html=1;rounded=0;" edge="1" parent="1" source="E7fV_PNSYA501RTFvuef-41" target="E7fV_PNSYA501RTFvuef-52">
          <mxGeometry x="-127.55102040816325" width="131.97278911564624" height="100" as="geometry">
            <mxPoint x="-127.55102040816325" y="100" as="sourcePoint" />
            <mxPoint x="4.421768707483011" as="targetPoint" />
          </mxGeometry>
        </mxCell>
        <mxCell id="E7fV_PNSYA501RTFvuef-69" value="" style="edgeStyle=elbowEdgeStyle;elbow=horizontal;strokeWidth=3;strokeColor=#0C343D;fontFamily=Helvetica;html=1;rounded=0;" edge="1" parent="1" source="E7fV_PNSYA501RTFvuef-52" target="E7fV_PNSYA501RTFvuef-48">
          <mxGeometry x="-127.55102040816325" width="131.97278911564624" height="100" as="geometry">
            <mxPoint x="-127.55102040816325" y="100" as="sourcePoint" />
            <mxPoint x="4.421768707483011" as="targetPoint" />
          </mxGeometry>
        </mxCell>
        <mxCell id="E7fV_PNSYA501RTFvuef-70" value="" style="edgeStyle=elbowEdgeStyle;elbow=horizontal;strokeWidth=3;strokeColor=#0C343D;fontFamily=Helvetica;html=1;rounded=0;" edge="1" parent="1" source="E7fV_PNSYA501RTFvuef-39" target="E7fV_PNSYA501RTFvuef-46">
          <mxGeometry x="-127.55102040816325" width="131.97278911564624" height="100" as="geometry">
            <mxPoint x="-127.55102040816325" y="100" as="sourcePoint" />
            <mxPoint x="4.421768707483011" as="targetPoint" />
          </mxGeometry>
        </mxCell>
        <mxCell id="E7fV_PNSYA501RTFvuef-71" value="" style="edgeStyle=elbowEdgeStyle;elbow=horizontal;strokeWidth=3;strokeColor=#0C343D;fontFamily=Helvetica;html=1;rounded=0;" edge="1" parent="1" source="E7fV_PNSYA501RTFvuef-42" target="E7fV_PNSYA501RTFvuef-50">
          <mxGeometry x="-127.55102040816325" width="131.97278911564624" height="100" as="geometry">
            <mxPoint x="-127.55102040816325" y="100" as="sourcePoint" />
            <mxPoint x="4.421768707483011" as="targetPoint" />
            <Array as="points">
              <mxPoint x="743.4693877551019" y="600" />
            </Array>
          </mxGeometry>
        </mxCell>
        <mxCell id="E7fV_PNSYA501RTFvuef-72" value="" style="edgeStyle=elbowEdgeStyle;elbow=horizontal;strokeWidth=3;strokeColor=#0C343D;fontFamily=Helvetica;html=1;rounded=0;" edge="1" parent="1" source="E7fV_PNSYA501RTFvuef-50" target="E7fV_PNSYA501RTFvuef-51">
          <mxGeometry x="-127.55102040816325" width="131.97278911564624" height="100" as="geometry">
            <mxPoint x="-127.55102040816325" y="100" as="sourcePoint" />
            <mxPoint x="4.421768707483011" as="targetPoint" />
          </mxGeometry>
        </mxCell>
        <mxCell id="E7fV_PNSYA501RTFvuef-73" value="" style="edgeStyle=elbowEdgeStyle;elbow=horizontal;strokeWidth=3;strokeColor=#0C343D;fontFamily=Helvetica;html=1;rounded=0;" edge="1" parent="1" source="E7fV_PNSYA501RTFvuef-50" target="E7fV_PNSYA501RTFvuef-49">
          <mxGeometry x="-127.55102040816325" width="131.97278911564624" height="100" as="geometry">
            <mxPoint x="-127.55102040816325" y="100" as="sourcePoint" />
            <mxPoint x="4.421768707483011" as="targetPoint" />
          </mxGeometry>
        </mxCell>
        <mxCell id="E7fV_PNSYA501RTFvuef-74" value="" style="edgeStyle=elbowEdgeStyle;elbow=horizontal;strokeWidth=3;strokeColor=#0C343D;fontFamily=Helvetica;html=1;rounded=0;" edge="1" parent="1" source="E7fV_PNSYA501RTFvuef-49" target="E7fV_PNSYA501RTFvuef-58">
          <mxGeometry x="-127.55102040816325" width="131.97278911564624" height="100" as="geometry">
            <mxPoint x="-127.55102040816325" y="100" as="sourcePoint" />
            <mxPoint x="4.421768707483011" as="targetPoint" />
          </mxGeometry>
        </mxCell>
        <mxCell id="E7fV_PNSYA501RTFvuef-75" value="" style="edgeStyle=elbowEdgeStyle;elbow=horizontal;strokeWidth=3;strokeColor=#0C343D;fontFamily=Helvetica;html=1;rounded=0;" edge="1" parent="1" source="E7fV_PNSYA501RTFvuef-58" target="E7fV_PNSYA501RTFvuef-47">
          <mxGeometry x="-127.55102040816325" width="131.97278911564624" height="100" as="geometry">
            <mxPoint x="-127.55102040816325" y="100" as="sourcePoint" />
            <mxPoint x="4.421768707483011" as="targetPoint" />
          </mxGeometry>
        </mxCell>
        <mxCell id="E7fV_PNSYA501RTFvuef-76" value="" style="edgeStyle=elbowEdgeStyle;elbow=horizontal;strokeWidth=3;strokeColor=#0C343D;fontFamily=Helvetica;html=1;rounded=0;" edge="1" parent="1" source="E7fV_PNSYA501RTFvuef-56" target="E7fV_PNSYA501RTFvuef-47">
          <mxGeometry x="-127.55102040816325" width="131.97278911564624" height="100" as="geometry">
            <mxPoint x="-127.55102040816325" y="100" as="sourcePoint" />
            <mxPoint x="4.421768707483011" as="targetPoint" />
            <Array as="points">
              <mxPoint x="1642" y="450" />
            </Array>
          </mxGeometry>
        </mxCell>
        <mxCell id="E7fV_PNSYA501RTFvuef-77" value="" style="edgeStyle=elbowEdgeStyle;elbow=horizontal;strokeWidth=3;strokeColor=#0C343D;fontFamily=Helvetica;html=1;rounded=0;" edge="1" parent="1" source="E7fV_PNSYA501RTFvuef-57" target="E7fV_PNSYA501RTFvuef-58">
          <mxGeometry x="-127.55102040816325" width="131.97278911564624" height="100" as="geometry">
            <mxPoint x="-127.55102040816325" y="100" as="sourcePoint" />
            <mxPoint x="4.421768707483011" as="targetPoint" />
          </mxGeometry>
        </mxCell>
        <mxCell id="E7fV_PNSYA501RTFvuef-78" value="" style="edgeStyle=elbowEdgeStyle;elbow=horizontal;strokeWidth=3;strokeColor=#0C343D;fontFamily=Helvetica;html=1;rounded=0;" edge="1" parent="1" source="E7fV_PNSYA501RTFvuef-51" target="E7fV_PNSYA501RTFvuef-54">
          <mxGeometry x="-127.55102040816325" width="131.97278911564624" height="100" as="geometry">
            <mxPoint x="-127.55102040816325" y="100" as="sourcePoint" />
            <mxPoint x="4.421768707483011" as="targetPoint" />
          </mxGeometry>
        </mxCell>
        <mxCell id="E7fV_PNSYA501RTFvuef-79" value="" style="edgeStyle=elbowEdgeStyle;elbow=horizontal;strokeWidth=3;strokeColor=#0C343D;fontFamily=Helvetica;html=1;rounded=0;" edge="1" parent="1" source="E7fV_PNSYA501RTFvuef-51" target="E7fV_PNSYA501RTFvuef-57">
          <mxGeometry x="-127.55102040816325" width="131.97278911564624" height="100" as="geometry">
            <mxPoint x="-127.55102040816325" y="100" as="sourcePoint" />
            <mxPoint x="4.421768707483011" as="targetPoint" />
          </mxGeometry>
        </mxCell>
        <mxCell id="E7fV_PNSYA501RTFvuef-80" value="" style="edgeStyle=elbowEdgeStyle;elbow=horizontal;strokeWidth=3;strokeColor=#0C343D;fontFamily=Helvetica;html=1;rounded=0;" edge="1" parent="1" source="E7fV_PNSYA501RTFvuef-48" target="E7fV_PNSYA501RTFvuef-53">
          <mxGeometry x="-127.55102040816325" width="131.97278911564624" height="100" as="geometry">
            <mxPoint x="-127.55102040816325" y="100" as="sourcePoint" />
            <mxPoint x="4.421768707483011" as="targetPoint" />
          </mxGeometry>
        </mxCell>
        <mxCell id="E7fV_PNSYA501RTFvuef-81" value="" style="edgeStyle=elbowEdgeStyle;elbow=horizontal;strokeWidth=3;strokeColor=#0C343D;fontFamily=Helvetica;html=1;rounded=0;" edge="1" parent="1" source="E7fV_PNSYA501RTFvuef-45" target="E7fV_PNSYA501RTFvuef-56">
          <mxGeometry x="-127.55102040816325" width="131.97278911564624" height="100" as="geometry">
            <mxPoint x="-127.55102040816325" y="100" as="sourcePoint" />
            <mxPoint x="4.421768707483011" as="targetPoint" />
          </mxGeometry>
        </mxCell>
        <mxCell id="E7fV_PNSYA501RTFvuef-82" value="" style="edgeStyle=elbowEdgeStyle;elbow=horizontal;strokeWidth=3;strokeColor=#0C343D;fontFamily=Helvetica;html=1;rounded=0;" edge="1" parent="1" source="E7fV_PNSYA501RTFvuef-46" target="E7fV_PNSYA501RTFvuef-56">
          <mxGeometry x="-127.55102040816325" width="131.97278911564624" height="100" as="geometry">
            <mxPoint x="-127.55102040816325" y="100" as="sourcePoint" />
            <mxPoint x="4.421768707483011" as="targetPoint" />
            <Array as="points">
              <mxPoint x="1390.1360544217687" y="200" />
            </Array>
          </mxGeometry>
        </mxCell>
        <mxCell id="E7fV_PNSYA501RTFvuef-83" value="" style="edgeStyle=elbowEdgeStyle;elbow=horizontal;strokeWidth=3;strokeColor=#0C343D;fontFamily=Helvetica;html=1;rounded=0;" edge="1" parent="1" source="E7fV_PNSYA501RTFvuef-46" target="E7fV_PNSYA501RTFvuef-59">
          <mxGeometry x="-127.55102040816325" width="131.97278911564624" height="100" as="geometry">
            <mxPoint x="-127.55102040816325" y="100" as="sourcePoint" />
            <mxPoint x="4.421768707483011" as="targetPoint" />
          </mxGeometry>
        </mxCell>
        <mxCell id="E7fV_PNSYA501RTFvuef-84" value="" style="edgeStyle=elbowEdgeStyle;elbow=horizontal;strokeWidth=3;strokeColor=#0C343D;fontFamily=Helvetica;html=1;rounded=0;" edge="1" parent="1" source="E7fV_PNSYA501RTFvuef-59" target="E7fV_PNSYA501RTFvuef-47">
          <mxGeometry x="-127.55102040816325" width="131.97278911564624" height="100" as="geometry">
            <mxPoint x="-127.55102040816325" y="100" as="sourcePoint" />
            <mxPoint x="4.421768707483011" as="targetPoint" />
          </mxGeometry>
        </mxCell>
        <mxCell id="E7fV_PNSYA501RTFvuef-85" value="" style="edgeStyle=elbowEdgeStyle;elbow=horizontal;strokeWidth=3;strokeColor=#0C343D;fontFamily=Helvetica;html=1;rounded=0;" edge="1" parent="1" source="E7fV_PNSYA501RTFvuef-55" target="E7fV_PNSYA501RTFvuef-47">
          <mxGeometry x="-127.55102040816325" width="131.97278911564624" height="100" as="geometry">
            <mxPoint x="-127.55102040816325" y="100" as="sourcePoint" />
            <mxPoint x="4.421768707483011" as="targetPoint" />
          </mxGeometry>
        </mxCell>
        <mxCell id="E7fV_PNSYA501RTFvuef-86" value="" style="edgeStyle=elbowEdgeStyle;elbow=horizontal;strokeWidth=3;strokeColor=#0C343D;fontFamily=Helvetica;html=1;rounded=0;" edge="1" parent="1" source="E7fV_PNSYA501RTFvuef-54" target="E7fV_PNSYA501RTFvuef-55">
          <mxGeometry x="-127.55102040816325" width="131.97278911564624" height="100" as="geometry">
            <mxPoint x="-127.55102040816325" y="100" as="sourcePoint" />
            <mxPoint x="4.421768707483011" as="targetPoint" />
          </mxGeometry>
        </mxCell>
        <mxCell id="E7fV_PNSYA501RTFvuef-87" value="" style="edgeStyle=elbowEdgeStyle;elbow=horizontal;strokeWidth=3;strokeColor=#0C343D;fontFamily=Helvetica;html=1;rounded=0;" edge="1" parent="1" source="E7fV_PNSYA501RTFvuef-53" target="E7fV_PNSYA501RTFvuef-54">
          <mxGeometry x="-127.55102040816325" width="131.97278911564624" height="100" as="geometry">
            <mxPoint x="-127.55102040816325" y="100" as="sourcePoint" />
            <mxPoint x="4.421768707483011" as="targetPoint" />
            <Array as="points">
              <mxPoint x="1390.1360544217687" y="450" />
            </Array>
          </mxGeometry>
        </mxCell>
        <mxCell id="E7fV_PNSYA501RTFvuef-88" value="" style="group" vertex="1" connectable="0" parent="1">
          <mxGeometry x="110" y="60" width="646.6666666666666" height="40" as="geometry" />
        </mxCell>
        <mxCell id="E7fV_PNSYA501RTFvuef-89" value="Milestone 1" style="strokeColor=#BAC8D3;fillColor=#5d7f99;fontSize=19;strokeWidth=2;fontFamily=Helvetica;html=1;labelBackgroundColor=none;fontColor=#FFFFFF;" vertex="1" parent="E7fV_PNSYA501RTFvuef-88">
          <mxGeometry width="646.6656362699642" height="40" as="geometry" />
        </mxCell>
        <mxCell id="E7fV_PNSYA501RTFvuef-90" value="Milestone 2" style="strokeColor=#BAC8D3;fillColor=#5d7f99;fontSize=19;strokeWidth=2;fontFamily=Helvetica;html=1;labelBackgroundColor=none;fontColor=#FFFFFF;" vertex="1" parent="E7fV_PNSYA501RTFvuef-88">
          <mxGeometry x="646.6656362699642" width="646.6656362699642" height="40" as="geometry" />
        </mxCell>
        <mxCell id="E7fV_PNSYA501RTFvuef-91" value="Milestone 3" style="strokeColor=#BAC8D3;fillColor=#5d7f99;fontSize=19;strokeWidth=2;fontFamily=Helvetica;html=1;labelBackgroundColor=none;fontColor=#FFFFFF;" vertex="1" parent="E7fV_PNSYA501RTFvuef-88">
          <mxGeometry x="1293.3312725399282" width="646.6666666666666" height="40" as="geometry" />
        </mxCell>
      </root>
    </mxGraphModel>
  </diagram>
</mxfile>
